<?xml version="1.0" standalone="no"?> <!DOCTYPE svg PUBLIC "-//W3C//DTD SVG 20010904//EN" "http://www.w3.org/TR/2001/REC-SVG-20010904/DTD/svg10.dtd"> <svg version="1.0" xmlns="http://www.w3.org/2000/svg" width="512.000000pt" height="512.000000pt" viewBox="0 0 512.000000 512.000000" preserveAspectRatio="xMidYMid meet"> <g transform="translate(0.000000,512.000000) scale(0.100000,-0.100000)" fill="#64748b" stroke="none"> <path d="M2395 4853 c-513 -81 -903 -485 -965 -998 -60 -497 253 -1217 663 -1526 342 -257 695 -231 1024 75 364 339 624 989 575 1436 -54 483 -384 865 -859 991 -61 17 -114 22 -243 24 -91 2 -178 1 -195 -2z"/> <path d="M1670 2323 c-112 -17 -177 -37 -204 -61 -68 -64 -109 -166 -127 -316 l-11 -95 40 -46 c23 -26 61 -60 86 -76 110 -73 222 -236 236 -341 4 -35 13 -75 18 -90 27 -66 44 -189 43 -306 0 -185 -23 -236 -127 -283 -54 -25 -76 -29 -150 -29 -82 0 -87 1 -116 30 -27 27 -30 36 -25 72 9 69 32 82 146 86 l98 4 7 72 c11 118 -30 334 -69 366 -9 7 -31 41 -51 75 -41 75 -105 150 -145 170 -35 19 -82 19 -117 1 -42 -22 -117 -107 -147 -167 -15 -30 -40 -67 -55 -84 -51 -54 -86 -224 -74 -358 l7 -77 89 0 c107 0 141 -14 158 -65 14 -42 0 -87 -34 -110 -23 -17 -184 -21 -214 -6 -9 5 -37 17 -60 27 -88 36 -114 105 -114 294 0 103 5 142 27 225 15 55 30 120 34 145 15 97 121 256 221 331 30 22 73 61 97 87 35 38 43 53 43 85 0 52 18 171 37 235 8 30 13 56 10 58 -10 10 -151 -82 -242 -158 -241 -199 -400 -467 -471 -793 -26 -122 -24 -394 4 -498 72 -264 258 -401 607 -448 142 -20 2737 -20 2867 -1 360 53 538 184 610 449 31 114 31 366 0 510 -69 321 -234 595 -476 790 -80 65 -244 168 -253 159 -3 -2 0 -13 6 -25 17 -31 49 -178 57 -259 l7 -72 58 -26 c69 -31 140 -102 172 -172 16 -36 22 -66 22 -127 0 -71 -4 -88 -33 -147 -59 -120 -161 -183 -297 -183 -97 0 -167 29 -233 96 -164 168 -112 437 104 536 l53 24 -6 52 c-16 155 -60 280 -128 363 -31 37 -43 44 -103 57 -37 8 -87 18 -112 21 l-45 6 -18 -49 c-9 -27 -36 -77 -59 -112 -82 -125 -453 -473 -701 -658 l-57 -44 -73 56 c-171 131 -342 281 -487 426 -160 160 -227 247 -257 332 -18 49 -20 51 -73 42z"/> <path d="M3817 1646 c-51 -19 -67 -34 -89 -84 -59 -132 86 -262 212 -191 53 30 84 88 77 146 -6 57 -31 92 -87 121 -51 25 -61 26 -113 8z"/> </g> </svg>